<svg xmlns="http://www.w3.org/2000/svg" width="512" height="512" viewBox="0 0 48 48"><g stroke="#984f11" stroke-width="1.6" stroke-linejoin="round" stroke-linecap="round"><path d="M11.4 21.4 13.2 8.6 21.4 16z" fill="#df7d24"></path><path d="M36.6 21.4 34.8 8.6 26.6 16z" fill="#df7d24"></path></g><path d="M12.6 20 13.8 10.6l6.2 5.6z" fill="#f4983f"></path><path d="M35.4 20 34.2 10.6l-6.2 5.6z" fill="#f4983f"></path><path d="M14.2 17.6 15 12.2 18.8 15.8z" fill="#463629"></path><path d="M33.8 17.6 33 12.2 29.2 15.8z" fill="#463629"></path><ellipse cx="24.8" cy="28" rx="13" ry="11.8" fill="#df7d24"></ellipse><ellipse cx="23.5" cy="26.1" rx="11.8" ry="10.600000000000001" fill="#f4983f"></ellipse><ellipse cx="18.28" cy="20.863999999999997" rx="4.16" ry="2.3600000000000003" fill="#fff" opacity="0.34" transform="rotate(-28 18.28 20.863999999999997)"></ellipse><ellipse cx="24.8" cy="28" rx="13" ry="11.8" fill="none" stroke="#984f11" stroke-width="1.6"></ellipse><path d="M24 38.7q-8.3-1.8-8.3-8.5 8.3-2.4 16.6 0 0 6.7-8.3 8.5z" fill="#e9e0ec"></path><path d="M24 37.6q-7.2-1.6-7.2-7.4 7.2-2.1 14.4 0 0 5.8-7.2 7.4z" fill="#fdfafd"></path><path d="M17.4 24.2q2.8-1.8 4.8.4M30.6 24.2q-2.8-1.8-4.8.4" stroke="#2b2637" stroke-width="2.2" stroke-linecap="round" fill="none"></path><path d="M22.2 30.6h3.6L24 32.9z" fill="#2b2637"></path><path d="M24 32.9v1.4M24 34.3q-2.2 1.8-3.8 0M24 34.3q2.2 1.8 3.8 0" stroke="#2b2637" stroke-width="1.4" stroke-linecap="round" fill="none"></path></svg>