<svg xmlns="http://www.w3.org/2000/svg" width="512" height="512" viewBox="0 0 48 48"><g stroke="#a297a8" stroke-width="1.6" stroke-linejoin="round" stroke-linecap="round"><path d="M12.6 20.4 15.4 9l6.8 6.4z" fill="#e9e0ec"></path><path d="M35.4 20.4 32.6 9l-6.8 6.4z" fill="#e9e0ec"></path><ellipse cx="37" cy="31.5" rx="3.9" ry="4.7" fill="#fdfafd" transform="rotate(18 37 31.5)"></ellipse></g><ellipse cx="37.4" cy="32.6" rx="2.2" ry="2.4" fill="#f4a3b9" transform="rotate(18 37.4 32.6)"></ellipse><path d="M15.4 17.8 16.9 11.6l4 4z" fill="#fdfafd"></path><path d="M32.6 17.8 31.1 11.6l-4 4z" fill="#fdfafd"></path><path d="M15.8 17.2 16.9 12.6 19.9 15.6z" fill="#f4a3b9"></path><path d="M32.2 17.2 31.1 12.6 28.1 15.6z" fill="#f4a3b9"></path><ellipse cx="24.8" cy="28" rx="13" ry="12.2" fill="#e9e0ec"></ellipse><ellipse cx="23.5" cy="26.1" rx="11.8" ry="11" fill="#fdfafd"></ellipse><ellipse cx="18.28" cy="20.656" rx="4.16" ry="2.44" fill="#fff" opacity="0.34" transform="rotate(-28 18.28 20.656)"></ellipse><ellipse cx="24.8" cy="28" rx="13" ry="12.2" fill="none" stroke="#a297a8" stroke-width="1.6"></ellipse><g><circle cx="19.4" cy="25" r="2.05" fill="#2b2637"></circle><circle cx="20.055999999999997" cy="24.18" r="0.697" fill="#fff" opacity="0.95"></circle><circle cx="18.662" cy="25.861" r="0.3485" fill="#fff" opacity="0.45"></circle></g><g><circle cx="28.6" cy="25" r="2.05" fill="#2b2637"></circle><circle cx="29.256" cy="24.18" r="0.697" fill="#fff" opacity="0.95"></circle><circle cx="27.862000000000002" cy="25.861" r="0.3485" fill="#fff" opacity="0.45"></circle></g><path d="M12.6 23.4 8.2 21.8M12.6 26.6 8.2 26.8M35.4 23.4 39.8 21.8M35.4 26.6 39.8 26.8" stroke="#a297a8" stroke-width="1.3" stroke-linecap="round" opacity="0.7"></path><path d="M22.7 28.9h2.6L24 30.8z" fill="#ee7089" stroke="#a297a8" stroke-width="1.1" stroke-linejoin="round"></path><path d="M24 30.8v1.3M24 32.1q-2 1.6-3.4 0M24 32.1q2 1.6 3.4 0" stroke="#a297a8" stroke-width="1.3" stroke-linecap="round" fill="none"></path><path d="M14.4 36.4q9.6 4.2 19.2 0" stroke="#c02a44" stroke-width="3.6" stroke-linecap="round" fill="none"></path><path d="M14.9 35.7q9.1 3.9 18.2 0" stroke="#e6465f" stroke-width="1.5" stroke-linecap="round" fill="none"></path><circle cx="24" cy="38.7" r="3.1" fill="#eab52a" stroke="#a3700f" stroke-width="1.3"></circle><circle cx="22.9" cy="37.6" r="1" fill="#fbe08a"></circle><path d="M24 36.9v3.6" stroke="#a3700f" stroke-width="1.1" stroke-linecap="round"></path></svg>