<svg xmlns="http://www.w3.org/2000/svg" width="512" height="512" viewBox="0 0 48 48"><g stroke="#57402d" stroke-width="1.6" stroke-linejoin="round" stroke-linecap="round"><circle cx="10.4" cy="26" r="4.7" fill="#8a6a50"></circle><circle cx="37.6" cy="26" r="4.7" fill="#8a6a50"></circle></g><circle cx="10.4" cy="26" r="2.4" fill="#dda388"></circle><circle cx="37.6" cy="26" r="2.4" fill="#dda388"></circle><ellipse cx="24.8" cy="27" rx="13" ry="12.6" fill="#8a6a50"></ellipse><ellipse cx="23.5" cy="25.1" rx="11.8" ry="11.4" fill="#a48264"></ellipse><ellipse cx="18.28" cy="19.448" rx="4.16" ry="2.52" fill="#fff" opacity="0.34" transform="rotate(-28 18.28 19.448)"></ellipse><ellipse cx="24.8" cy="27" rx="13" ry="12.6" fill="none" stroke="#57402d" stroke-width="1.6"></ellipse><ellipse cx="24.4" cy="28.8" rx="9.7" ry="9.9" fill="#e08b7c"></ellipse><ellipse cx="23.7" cy="28" rx="8.7" ry="9" fill="#f5a898"></ellipse><g><circle cx="19.8" cy="24" r="2.05" fill="#2b2637"></circle><circle cx="20.456" cy="23.18" r="0.697" fill="#fff" opacity="0.95"></circle><circle cx="19.062" cy="24.861" r="0.3485" fill="#fff" opacity="0.45"></circle></g><g><circle cx="28.2" cy="24" r="2.05" fill="#2b2637"></circle><circle cx="28.855999999999998" cy="23.18" r="0.697" fill="#fff" opacity="0.95"></circle><circle cx="27.462" cy="24.861" r="0.3485" fill="#fff" opacity="0.45"></circle></g><ellipse cx="16.8" cy="30.6" rx="2.8" ry="1.9" fill="#dd5a49" opacity="0.5"></ellipse><ellipse cx="31.2" cy="30.6" rx="2.8" ry="1.9" fill="#dd5a49" opacity="0.5"></ellipse><ellipse cx="22.6" cy="29.9" rx="1" ry="1.25" fill="#a85c4e"></ellipse><ellipse cx="25.4" cy="29.9" rx="1" ry="1.25" fill="#a85c4e"></ellipse><path d="M20.2 33.5q3.8 3 7.6 0" stroke="#a85c4e" stroke-width="1.7" stroke-linecap="round" fill="none"></path></svg>