<svg xmlns="http://www.w3.org/2000/svg" width="512" height="512" viewBox="0 0 48 48"><g stroke="#7f1c30" stroke-width="1.6" stroke-linejoin="round" stroke-linecap="round"><circle cx="24" cy="10.6" r="3.7" fill="#c1344f"></circle><circle cx="10.6" cy="18.6" r="3.7" fill="#c1344f"></circle><circle cx="37.4" cy="18.6" r="3.7" fill="#c1344f"></circle><circle cx="10.6" cy="33.4" r="3.7" fill="#c1344f"></circle><circle cx="37.4" cy="33.4" r="3.7" fill="#c1344f"></circle><circle cx="24" cy="41.4" r="3.7" fill="#c1344f"></circle></g><ellipse cx="24.8" cy="27" rx="16.4" ry="16.4" fill="#c1344f"></ellipse><ellipse cx="23.5" cy="25.1" rx="15.2" ry="15.2" fill="#dc4762"></ellipse><ellipse cx="24.8" cy="27" rx="16.4" ry="16.4" fill="none" stroke="#7f1c30" stroke-width="1.6"></ellipse><ellipse cx="24.4" cy="27.4" rx="11" ry="11" fill="#e09a58"></ellipse><ellipse cx="23.7" cy="26.6" rx="10" ry="10" fill="#f5b673"></ellipse><ellipse cx="19.4" cy="21.4" rx="3.6" ry="2.3" fill="#fff" opacity="0.3" transform="rotate(-28 19.4 21.4)"></ellipse><path d="M18.4 22.4q3-2.2 5.4 0M29.6 22.4q-3-2.2-5.4 0" stroke="#8a5320" stroke-width="2.3" stroke-linecap="round" fill="none"></path><circle cx="19.6" cy="25.4" r="1.6" fill="#2b2637"></circle><circle cx="28.4" cy="25.4" r="1.6" fill="#2b2637"></circle><circle cx="20.2" cy="24.8" r="0.55" fill="#fff"></circle><circle cx="29" cy="24.8" r="0.55" fill="#fff"></circle><path d="M20.9 28.8h6.2L24 31.6z" fill="#8a3520"></path><path d="M19.4 33q4.6 3.6 9.2 0" stroke="#8a3520" stroke-width="1.9" stroke-linecap="round" fill="none"></path><path d="M20.9 33.8l1.3 2.5M27.1 33.8l-1.3 2.5" stroke="#fdfafd" stroke-width="1.9" stroke-linecap="round"></path></svg>